<?xml version="1.0" standalone="no"?>
<!DOCTYPE svg PUBLIC "-//W3C//DTD SVG 20010904//EN"
 "http://www.w3.org/TR/2001/REC-SVG-20010904/DTD/svg10.dtd">
<svg version="1.0" xmlns="http://www.w3.org/2000/svg"
 width="900.000000pt" height="860.000000pt" viewBox="0 0 900.000000 860.000000"
 preserveAspectRatio="xMidYMid meet">

<g transform="translate(0.000000,860.000000) scale(0.100000,-0.100000)"
fill="#000000" stroke="none">
<path d="M3335 8580 c-269 -29 -427 -59 -655 -122 -402 -111 -830 -316 -1165
-557 -172 -124 -291 -225 -455 -390 -173 -173 -271 -289 -397 -469 -698 -996
-856 -2317 -412 -3435 478 -1201 1532 -2052 2799 -2261 245 -40 382 -49 677
-43 275 5 407 19 644 67 291 59 617 167 868 289 47 23 90 41 95 41 6 0 28 -27
49 -60 57 -88 145 -204 227 -298 l72 -83 -11 -122 c-12 -126 -25 -193 -87
-462 -28 -119 -38 -183 -38 -251 -1 -88 0 -92 36 -146 27 -41 58 -70 115 -107
43 -29 87 -54 98 -57 13 -3 84 30 200 92 547 292 876 423 1275 510 397 87 513
121 665 197 537 268 933 828 1041 1471 86 518 -70 1091 -413 1516 -129 159
-330 333 -523 453 -165 102 -419 200 -641 248 l-107 23 -5 336 c-4 259 -10
368 -25 480 -93 667 -357 1277 -786 1814 -104 131 -403 430 -531 532 -461 368
-946 601 -1516 728 -231 51 -400 68 -719 71 -162 2 -331 0 -375 -5z m639 -578
c99 -45 255 -193 383 -363 115 -152 314 -525 317 -593 1 -29 -2 -31 -49 -43
-54 -14 -391 -57 -570 -73 -142 -13 -611 -13 -785 0 -164 12 -520 57 -586 73
-30 7 -50 18 -52 28 -4 22 106 260 180 389 199 345 414 575 563 601 22 4 155
7 295 5 239 -2 258 -3 304 -24z m-1760 -512 c-58 -124 -117 -249 -130 -277
-14 -29 -32 -53 -40 -53 -21 0 -260 78 -322 106 -30 13 -52 28 -50 34 5 15
200 164 308 235 121 80 334 198 338 187 1 -4 -45 -109 -104 -232z m2894 170
c155 -80 367 -218 496 -325 24 -19 27 -26 17 -38 -25 -31 -335 -145 -363 -135
-8 4 -24 32 -36 65 -12 32 -67 150 -122 263 -55 112 -100 208 -100 212 0 13 8
10 108 -42z m1049 -900 c258 -370 403 -701 508 -1160 26 -113 55 -298 55 -349
l0 -31 -550 0 c-432 0 -552 3 -555 13 -2 6 -9 86 -15 177 -23 349 -84 790
-146 1055 -14 61 -27 118 -28 128 -1 15 22 27 119 61 175 63 371 142 445 181
36 19 72 33 80 32 8 -1 47 -49 87 -107z m-4795 51 c130 -57 318 -130 398 -156
30 -10 72 -26 93 -37 32 -16 38 -23 33 -41 -9 -34 -93 -460 -110 -562 -22
-130 -53 -415 -66 -605 -6 -91 -13 -171 -16 -179 -4 -12 -88 -13 -537 -8 -292
3 -542 9 -555 12 -29 9 -29 33 3 214 76 433 213 792 438 1151 56 89 174 247
190 253 6 3 13 6 14 6 1 1 53 -21 115 -48z m1175 -355 c100 -21 403 -63 603
-82 239 -24 733 -24 995 0 266 24 517 53 610 71 104 20 122 19 134 -4 15 -27
66 -286 95 -481 39 -258 82 -712 70 -732 -7 -11 -2771 -10 -2778 1 -7 10 9
235 29 426 28 259 117 742 146 796 12 23 10 23 96 5z m-829 -1978 c20 -311 74
-684 146 -1008 14 -63 28 -125 32 -137 8 -29 -14 -42 -203 -118 -87 -35 -222
-91 -301 -125 -78 -33 -147 -58 -152 -55 -25 16 -218 321 -313 495 -136 251
-267 644 -317 950 -11 69 -20 137 -20 153 l0 27 558 0 558 0 12 -182z m3336
110 c-29 -368 -66 -644 -124 -930 -21 -104 -44 -195 -51 -204 -17 -21 -90 -16
-314 20 -278 44 -379 50 -895 49 -612 -1 -831 -16 -1128 -78 -35 -8 -70 -11
-78 -8 -8 3 -18 22 -24 43 -72 269 -160 861 -160 1083 l0 97 1390 0 1390 0 -6
-72z m1630 66 c25 -4 46 -10 46 -15 0 -10 -66 -34 -196 -68 -144 -39 -214 -66
-349 -134 -190 -95 -321 -189 -513 -365 -56 -52 -105 -93 -107 -91 -2 3 0 36
5 74 10 77 50 539 50 580 l0 25 509 0 c279 0 529 -3 555 -6z m606 -600 c419
-58 821 -362 1014 -767 98 -207 138 -380 139 -597 0 -214 -37 -375 -133 -577
-167 -352 -471 -652 -758 -747 -59 -20 -190 -56 -292 -80 -273 -66 -371 -102
-803 -295 -126 -56 -231 -101 -233 -98 -2 2 1 30 8 63 6 32 12 145 12 249 1
262 -4 275 -199 485 -177 192 -291 383 -350 584 -41 145 -48 212 -42 456 4
204 7 234 31 319 34 121 127 315 207 433 76 111 205 244 311 322 154 112 378
212 578 257 72 16 110 18 245 13 88 -3 207 -12 265 -20z m-3374 -1094 c306
-17 619 -52 727 -81 26 -7 37 -15 37 -29 0 -20 -126 -272 -209 -418 -80 -141
-191 -284 -325 -418 -113 -114 -125 -123 -174 -133 -31 -6 -166 -11 -331 -11
l-277 0 -70 50 c-136 95 -298 284 -429 500 -67 110 -215 407 -215 432 0 22 40
33 210 57 352 51 732 69 1056 51z m-1839 -232 c6 -7 30 -58 54 -113 24 -55 85
-182 136 -283 l93 -183 -122 63 c-180 92 -558 348 -558 378 0 7 199 93 305
131 61 21 80 23 92 7z m3040 -438 l6 -58 -39 -24 c-44 -27 -90 -48 -105 -48
-5 0 1 19 14 43 13 23 41 73 62 111 43 79 53 75 62 -24z"/>
</g>
</svg>
