<?xml version="1.0" standalone="no"?>
<!DOCTYPE svg PUBLIC "-//W3C//DTD SVG 20010904//EN"
 "http://www.w3.org/TR/2001/REC-SVG-20010904/DTD/svg10.dtd">
<svg version="1.0" xmlns="http://www.w3.org/2000/svg"
 width="512.000000pt" height="512.000000pt" viewBox="0 0 512.000000 512.000000"
 preserveAspectRatio="xMidYMid meet">

<g transform="translate(0.000000,512.000000) scale(0.100000,-0.100000)"
fill="#000000" stroke="none">
<path d="M2505 5096 c-33 -33 -37 -68 -33 -266 l3 -172 28 -24 c16 -13 41 -24
57 -24 16 0 41 11 57 24 l28 24 3 172 c2 95 1 188 -3 207 -9 47 -46 83 -85 83
-19 0 -40 -9 -55 -24z"/>
<path d="M1539 4845 c-29 -16 -52 -66 -42 -93 16 -47 190 -336 210 -349 30
-20 87 -9 108 20 28 40 18 75 -67 226 -46 80 -94 158 -108 173 -31 34 -67 42
-101 23z"/>
<path d="M3486 4828 c-46 -48 -196 -318 -196 -354 0 -16 7 -39 15 -51 21 -29
78 -40 108 -20 20 13 194 302 211 350 9 28 -20 86 -49 97 -41 16 -55 12 -89
-22z"/>
<path d="M2450 4434 c-277 -36 -459 -102 -671 -244 -89 -60 -285 -259 -349
-354 -95 -142 -171 -326 -212 -511 -8 -39 -13 -129 -13 -255 1 -177 3 -205 27
-300 73 -289 176 -470 391 -684 71 -70 136 -145 145 -165 11 -26 18 -83 22
-201 5 -142 9 -171 28 -206 25 -49 72 -98 113 -120 26 -13 29 -20 29 -64 0
-71 18 -144 45 -185 l24 -35 -24 -35 c-29 -43 -48 -125 -39 -174 3 -20 19 -59
34 -86 27 -50 28 -51 9 -74 -11 -13 -26 -48 -35 -79 -39 -135 46 -278 186
-312 85 -20 140 9 140 75 0 41 -36 85 -70 85 -36 0 -77 28 -88 60 -13 35 -8
56 21 87 20 22 26 23 207 23 194 0 243 8 260 40 18 34 12 85 -13 108 -22 21
-32 22 -209 22 -112 0 -198 4 -218 11 -39 14 -65 65 -51 101 20 54 31 56 248
60 197 3 202 3 227 27 34 32 36 88 4 119 -22 19 -36 21 -223 24 -223 3 -238 7
-256 68 -6 19 -9 51 -7 70 l3 35 230 3 c219 2 230 3 252 24 33 31 31 87 -3
119 l-26 24 -288 3 -288 3 -23 25 c-23 24 -24 34 -29 192 -6 161 -7 169 -38
235 -26 56 -53 90 -160 195 -143 141 -201 217 -266 349 -94 190 -131 364 -123
583 8 224 60 394 179 588 66 108 232 278 342 352 141 94 316 163 479 190 93
15 303 12 396 -5 374 -71 691 -313 864 -660 131 -263 154 -597 61 -882 -64
-198 -152 -332 -331 -510 -111 -110 -139 -143 -165 -200 -31 -66 -32 -74 -38
-235 -5 -159 -6 -168 -29 -192 -24 -26 -27 -26 -168 -26 -163 0 -206 -11 -224
-57 -11 -31 -7 -58 15 -88 12 -17 29 -21 123 -25 l108 -5 3 -35 c5 -48 -13
-102 -39 -119 -12 -7 -58 -16 -102 -20 -83 -7 -101 -18 -113 -66 -16 -63 43
-105 144 -105 48 0 62 -4 79 -23 30 -33 34 -54 19 -91 -17 -40 -55 -56 -136
-56 -43 0 -61 -5 -78 -20 -29 -27 -37 -63 -20 -96 18 -40 52 -54 129 -54 55 0
69 -4 86 -22 29 -32 34 -53 21 -88 -19 -55 -42 -60 -301 -60 l-234 0 -27 -26
c-33 -34 -34 -74 -2 -111 l24 -28 181 -5 182 -5 -30 -47 c-87 -137 -265 -153
-399 -37 -62 54 -152 24 -152 -51 0 -72 144 -172 279 -193 209 -32 416 104
470 310 9 31 18 43 40 51 69 24 130 108 146 199 8 49 -14 134 -44 172 -19 25
-19 25 9 75 15 28 31 67 34 87 9 49 -10 131 -39 174 l-24 35 24 35 c27 41 45
114 45 185 0 44 3 51 29 64 41 22 88 71 113 120 19 35 23 64 28 206 4 119 10
175 22 202 9 20 73 93 145 165 240 238 352 449 409 768 17 97 19 303 4 405
-89 584 -548 1055 -1125 1155 -94 16 -275 26 -335 19z"/>
<path d="M823 4130 c-47 -19 -59 -96 -20 -133 42 -42 323 -197 356 -197 69 0
105 82 59 134 -28 31 -311 196 -347 201 -14 3 -36 0 -48 -5z"/>
<path d="M4230 4133 c-47 -19 -309 -178 -329 -200 -45 -51 -7 -133 61 -133 32
0 315 156 356 197 22 22 29 64 16 98 -12 30 -69 51 -104 38z"/>
<path d="M2008 3386 c-70 -29 -113 -64 -154 -125 -43 -64 -58 -114 -58 -198 1
-130 77 -243 203 -301 48 -22 73 -27 178 -30 l122 -4 3 -483 3 -483 24 -26
c30 -32 78 -34 115 -5 l26 20 0 490 0 489 90 0 90 0 0 -489 0 -490 26 -20 c37
-29 85 -27 115 5 l24 26 3 483 3 483 122 4 c105 3 130 8 178 30 78 36 133 89
171 165 26 53 31 76 32 136 0 84 -15 134 -58 199 -113 169 -353 199 -505 62
-29 -26 -62 -69 -78 -102 -25 -51 -29 -70 -33 -187 l-5 -130 -85 0 -85 0 -5
130 c-4 117 -8 136 -33 187 -77 157 -268 230 -429 164z m219 -172 c60 -45 68
-66 71 -195 l4 -119 -99 0 c-74 0 -108 5 -139 19 -127 58 -133 225 -10 302 41
26 134 22 173 -7z m839 7 c123 -75 117 -244 -10 -302 -31 -14 -65 -19 -138
-19 l-98 0 0 104 c0 111 8 147 43 185 48 52 145 67 203 32z"/>
<path d="M564 3146 c-40 -18 -59 -62 -44 -101 20 -52 29 -54 248 -55 202 0
203 0 227 25 44 43 29 112 -29 135 -41 15 -364 12 -402 -4z"/>
<path d="M4151 3149 c-55 -22 -69 -92 -26 -134 24 -25 25 -25 227 -25 221 1
229 3 249 58 14 41 -9 86 -52 101 -39 14 -364 14 -398 0z"/>
<path d="M1115 2334 c-97 -51 -280 -160 -305 -181 -60 -50 -27 -143 49 -143
36 0 332 164 364 202 24 28 21 72 -5 102 -30 33 -66 40 -103 20z"/>
<path d="M3934 2340 c-50 -20 -70 -89 -36 -128 9 -12 88 -62 174 -112 172 -99
207 -109 246 -67 30 32 29 87 -1 115 -29 27 -311 190 -340 197 -12 2 -32 0
-43 -5z"/>
</g>
</svg>
