<?xml version="1.0" standalone="no"?>
<!DOCTYPE svg PUBLIC "-//W3C//DTD SVG 20010904//EN"
 "http://www.w3.org/TR/2001/REC-SVG-20010904/DTD/svg10.dtd">
<svg version="1.0" xmlns="http://www.w3.org/2000/svg"
 width="512.000000pt" height="512.000000pt" viewBox="0 0 512.000000 512.000000"
 preserveAspectRatio="xMidYMid meet">

<g transform="translate(0.000000,512.000000) scale(0.100000,-0.100000)"
fill="#000000" stroke="none">
<path d="M3346 4530 c-220 -35 -408 -129 -557 -279 -89 -89 -147 -172 -201
-287 -64 -138 -81 -216 -82 -389 -1 -82 3 -172 7 -199 l9 -48 -79 6 c-544 48
-1021 229 -1458 553 -90 67 -186 152 -313 279 l-183 183 -19 -32 c-32 -53 -79
-193 -95 -284 -64 -364 78 -721 379 -959 l39 -30 -79 8 c-97 10 -175 31 -277
75 -43 18 -81 33 -84 33 -10 0 7 -153 27 -235 57 -244 209 -458 423 -596 86
-56 211 -112 278 -126 52 -10 41 -21 -32 -33 -81 -14 -242 -17 -308 -5 -42 7
-43 6 -36 -16 15 -56 90 -194 143 -266 163 -219 420 -364 690 -389 39 -4 69
-11 66 -15 -14 -23 -232 -157 -339 -209 -298 -145 -578 -205 -918 -199 -97 2
-173 1 -169 -2 4 -4 47 -30 97 -59 260 -149 534 -252 830 -313 217 -45 295
-52 585 -51 316 0 452 16 714 84 761 194 1378 695 1746 1414 199 390 303 794
317 1234 l6 192 86 69 c108 86 237 219 324 335 37 49 66 91 64 92 -2 2 -37
-10 -79 -26 -104 -40 -275 -87 -380 -103 -49 -8 -88 -13 -88 -12 0 1 19 15 43
30 128 84 250 225 321 369 74 149 77 145 -76 71 -146 -70 -292 -123 -410 -150
l-78 -17 -70 64 c-111 102 -255 177 -418 219 -89 23 -277 33 -366 19z"/>
</g>
</svg>
