<?xml version="1.0" standalone="no"?>
<!DOCTYPE svg PUBLIC "-//W3C//DTD SVG 20010904//EN"
 "http://www.w3.org/TR/2001/REC-SVG-20010904/DTD/svg10.dtd">
<svg version="1.0" xmlns="http://www.w3.org/2000/svg"
 width="512.000000pt" height="512.000000pt" viewBox="0 0 512.000000 512.000000"
 preserveAspectRatio="xMidYMid meet">

<g transform="translate(0.000000,512.000000) scale(0.100000,-0.100000)"
fill="#000000" stroke="none">
<path d="M2055 4279 c-809 -15 -1284 -52 -1433 -112 -135 -55 -248 -158 -315
-285 -87 -165 -133 -527 -144 -1132 -8 -483 18 -922 73 -1200 59 -303 222
-476 503 -535 256 -54 935 -86 1826 -85 910 0 1558 30 1830 85 89 18 215 81
281 139 69 61 139 166 168 252 80 236 129 923 107 1493 -30 774 -93 1017 -306
1178 -98 74 -166 101 -318 128 -188 32 -640 60 -1117 70 -558 11 -758 12
-1155 4z m645 -1312 c337 -194 612 -357 612 -362 -1 -8 -1216 -715 -1229 -715
-1 0 -3 322 -3 715 0 393 2 715 4 715 2 0 279 -159 616 -353z"/>
</g>
</svg>
