<svg xmlns="http://www.w3.org/2000/svg" version="1.1" xmlnsXlink="http://www.w3.org/1999/xlink" xmlnsSvgjs="http://svgjs.dev/svgjs" viewBox="0 0 800 800"><defs><linearGradient x1="50%" y1="0%" x2="50%" y2="100%" id="ccchaos-grad"><stop stop-color="#28b97d" stop-opacity="1" offset="0%"></stop>
<stop stop-color="#23aaaa" stop-opacity="1" offset="100%"></stop>
</linearGradient></defs><g stroke-width="3" stroke="url(#ccchaos-grad)" fill="none" stroke-linecap="round">
<path d="M377.62 47.59Q387.08 55.96 397.12 65.2 407.77 74.88 418.99 84.48 430.77 93.5 443.06 101.48 455.8 108.08 468.91 113.1 482.31 116.54 495.89 118.59 509.55 119.59 523.18 120.04 536.66 120.5 549.87 121.57 562.71 123.77 575.06 127.51 586.82 133.02 597.92 140.34 608.29 149.26 617.87 159.42 626.64 170.27 634.57 181.17 641.69 191.47 648.01 200.56 664.35 215.5 673.84 217.9 673.95 222.17 663.28 237.74 659.2 248.2 658.85 258.66 662.25 269.13 669.07 279.59 678.65 290.05 690.03 300.52 702.1 310.98 713.67 321.44 723.6 331.91 730.9 342.37 734.86 352.84 735.09 363.3 731.57 373.76 724.64 384.23 714.98 394.69 703.56 405.16 691.48 415.62 679.95 426.08 670.1 436.55 662.9 447.01 659.06 457.47 658.96 467.94 662.6 478.4 669.64 488.87 679.37 499.33 690.83 509.79 702.91 520.26 714.4 530.72 724.18 541.19 731.27 551.65 723.83 566.32 715.45 582.35 706.12 598.5 695.88 613.49 684.76 626.17 672.86 635.66 660.24 641.42 647.01 643.37 633.29 641.85 619.21 637.64 604.9 631.83 590.49 625.72 576.11 620.65 561.9 617.87 547.96 618.37 534.42 622.75 521.37 631.17 508.88 643.32 497.03 658.45 485.85 675.44 475.37 692.93 465.61 709.51 456.54 723.84 448.14 734.85 433.37 742.52 420.06 738.67 408.28 724.95 396.86 713.44 384.26 702 371.98 694.76 360.07 691.91 348.59 693.09 337.58 697.52 327.05 704.01 317.03 711.15 307.5 717.5 290.06 720.65 273.83 712.44 266.29 701.34 258.98 687.05 251.84 670.63 244.79 653.4 237.77 636.74 230.72 621.98 223.56 610.17 216.25 602.05 200.85 599.05 184.65 605.15 176.05 611.01 167.16 616.5 157.98 620.36 148.54 621.53 138.87 619.29 129 613.31 118.97 603.73 108.82 591.06 107.61 580.09 105.95 569.13 104 558.16 101.95 547.19 100 536.22 98.35 525.25 97.15 514.29 96.53 503.32 96.55 492.35 97.2 481.38 98.43 470.41 100.1 459.45 102.06 448.48 104.11 437.51 106.05 426.54 107.69 415.58 108.87 404.61 109.47 393.64 109.43 382.67 108.76 371.7 107.52 360.74 105.83 349.77 103.86 338.8 101.81 327.83 99.88 316.87 98.25 305.9 97.09 294.93 96.51 283.96 96.57 273 97.27 262.03 98.52 251.06 100.22 240.09 110.33 238.78 120.63 235.57 131.12 230.25 141.75 222.86 152.5 213.69 163.31 203.22 174.15 192.07 184.96 180.94 195.69 170.48 206.27 161.28 216.66 153.76 226.81 148.12 236.66 144.35 246.19 142.22 263.95 141.13 280.55 140.23 295.31 134.39 309.15 123.76 315.65 115.71 322.02 106.52 328.32 96.68 334.65 86.73 341.08 77.2 347.69 68.56 354.58 61.17 361.82 55.22 373.55 49.17 377.62 47.59" stroke-dasharray="5 4" transform="rotate(0, 400, 400)" opacity="0.53"></path>
<path d="M380.04 59.92Q390.4 68.08 401.26 77.09 412.61 86.54 424.4 95.98 436.58 104.92 449.09 112.94 461.84 119.68 474.75 124.95 487.74 128.68 500.69 130.99 513.52 132.16 526.12 132.6 538.39 132.81 550.24 133.34 561.6 134.7 572.37 137.34 582.5 141.56 591.94 147.52 600.65 155.16 608.63 164.24 615.86 174.38 622.38 185.05 628.21 195.65 633.41 205.58 647.55 225.91 656.47 231.5 657.85 235.37 650.28 250.19 648.15 260.41 649.48 270.62 654.14 280.84 661.72 291.05 671.52 301.27 682.64 311.48 694.07 321.7 704.76 331.92 713.74 342.13 720.18 352.35 723.49 362.56 723.37 372.78 719.84 382.99 713.21 393.21 704.1 403.42 693.33 413.64 681.89 423.85 670.82 434.07 661.14 444.28 653.74 454.5 649.28 464.71 648.18 474.93 650.54 485.15 656.14 495.36 664.47 505.58 674.77 515.79 686.09 526.01 697.41 536.22 707.68 546.44 715.97 556.65 709.77 572.04 702.74 587.36 694.87 601.51 686.15 613.47 676.6 622.49 666.25 628.11 655.15 630.23 643.39 629.14 631.04 625.5 618.19 620.22 604.96 614.44 591.46 609.35 577.8 606.07 564.09 605.54 550.46 608.43 537 615.01 523.83 625.18 511.02 638.43 498.67 653.9 486.83 670.51 475.57 686.99 464.91 702.13 454.88 714.81 445.48 724.18 428.79 729.67 413.76 724.89 400.91 711.84 388.94 701.11 377.47 690.1 366.42 682.92 355.83 679.77 345.72 680.37 336.1 684.07 326.96 689.88 318.3 696.59 310.07 702.9 294.92 707.88 280.66 702.97 273.9 694.02 267.26 681.78 260.66 667.04 254.05 650.88 247.37 634.5 240.55 619.11 233.56 605.81 226.35 595.44 211.01 586.97 194.81 588.26 186.2 592.99 177.31 598.49 168.16 603.61 158.78 607.24 149.2 608.43 139.46 606.55 129.59 601.26 119.64 592.63 118.08 581.97 116.14 571.31 114.01 560.65 111.88 549.99 109.94 539.32 108.38 528.66 107.32 518 106.88 507.34 107.09 496.68 107.92 486.01 109.32 475.35 111.14 464.69 113.22 454.03 115.37 443.37 117.4 432.71 119.12 422.04 120.36 411.38 121.03 400.72 121.05 390.06 120.43 379.4 119.22 368.74 117.53 358.07 115.52 347.41 113.36 336.75 111.27 326.09 109.43 315.43 108 304.77 107.12 294.1 106.87 283.44 107.27 272.78 108.29 262.12 109.83 251.46 119.47 248.08 129.32 242.69 139.36 235.36 149.58 226.34 159.96 216.11 170.44 205.22 181 194.32 191.59 184.02 202.16 174.87 212.66 167.26 223.04 161.43 233.24 157.41 243.23 155.03 252.94 153.96 262.34 153.73 271.41 153.78 288.24 151.88 303.92 146.43 311.11 141.02 317.96 134.05 324.51 125.77 330.8 116.54 336.9 106.82 342.87 97.13 348.77 87.95 354.69 79.7 373.52 63.84 380.04 59.92" stroke-dasharray="5 9" transform="rotate(3.884615384615385, 400, 400)" opacity="0.60"></path>
<path d="M385.22 72.25Q396.19 80.19 407.53 88.95 419.2 98.17 431.14 107.42 443.29 116.27 455.56 124.3 467.88 131.17 480.16 136.67 492.32 140.7 504.27 143.31 515.94 144.72 527.23 145.26 538.08 145.35 548.41 145.49 558.19 146.17 567.35 147.83 575.88 150.85 583.74 155.44 590.94 161.69 597.49 169.49 603.42 178.61 608.76 188.63 613.58 199.06 617.95 209.36 625.55 226.64 632.62 239.42 640.8 248.65 638.29 263.68 637.97 273.65 640.78 283.63 646.48 293.6 654.6 303.57 664.44 313.54 675.17 323.52 685.89 333.49 695.69 343.46 703.74 353.43 709.35 363.41 712.06 373.38 711.64 383.35 708.11 393.32 701.79 403.3 693.2 413.27 683.06 423.24 672.25 433.21 661.67 443.19 652.21 453.16 644.68 463.13 639.72 473.11 637.74 483.08 638.91 493.05 643.13 503.02 650.05 513 659.08 522.97 669.45 532.94 680.3 542.92 690.69 552.89 699.76 562.86 694.6 577.3 688.76 590.48 682.18 601.55 674.86 609.88 666.77 615.08 657.93 617.1 648.35 616.2 638.09 612.93 627.2 608.11 615.74 602.7 603.79 597.74 591.43 594.25 578.77 593.1 565.89 594.92 552.9 600.08 539.89 608.58 526.97 620.12 514.23 634.04 501.74 649.49 489.59 665.4 477.85 680.69 466.57 694.29 455.79 705.32 445.56 713.14 435.87 717.42 426.75 718.2 418.18 715.86 410.14 711.1 402.61 704.89 395.53 698.34 388.87 692.61 382.55 688.78 372.47 678.2 362.87 671.11 345.3 669.22 329.07 675.87 314.74 687.66 301.29 696.1 288.72 690.93 276.32 675.65 270.07 662.81 263.71 648.09 257.19 632.48 250.47 617.06 243.51 602.87 236.29 590.82 228.8 581.6 221.01 575.59 204.43 574.42 187.04 580.41 177.93 585.55 168.61 590.38 159.14 593.92 149.54 595.33 139.85 594.01 130.12 589.61 128.24 579.32 126.09 569.02 123.85 558.73 121.7 548.43 119.83 538.14 118.4 527.85 117.52 517.55 117.28 507.26 117.69 496.96 118.72 486.67 120.28 476.37 122.24 466.08 124.43 455.78 126.67 445.49 128.76 435.2 130.54 424.9 131.85 414.61 132.58 404.31 132.67 394.02 132.11 383.72 130.95 373.43 129.28 363.14 127.25 352.84 125.03 342.55 122.81 332.25 120.77 321.96 119.09 311.67 117.91 301.37 117.33 291.08 117.39 280.78 118.1 270.49 119.4 260.2 128.54 254.59 137.89 247.17 147.45 238.22 157.21 228.17 167.14 217.53 177.23 206.9 187.43 196.84 197.72 187.85 208.05 180.3 218.38 174.43 228.65 170.29 238.83 167.76 248.85 166.56 258.68 166.29 268.28 166.46 277.59 166.54 286.58 166.04 295.24 164.53 303.53 161.68 311.45 157.31 318.99 151.4 326.15 144.09 332.96 135.63 339.44 126.42 345.62 116.88 351.56 107.49 357.29 98.69 362.88 90.84 379.58 75.92 385.22 72.25" stroke-dasharray="7 1" transform="rotate(7.76923076923077, 400, 400)" opacity="0.54"></path>
<path d="M392.43 84.57Q403.62 92.29 415.03 100.8 426.58 109.77 438.23 118.81 449.89 127.53 461.5 135.55 472.99 142.53 484.27 148.24 495.29 152.57 505.96 155.52 516.24 157.23 526.07 157.96 543.89 158.09 560.02 158.97 573.24 164.96 584.79 175.41 589.68 183.24 594.13 192.26 598.23 202.08 602.04 212.25 605.65 222.27 609.15 231.64 616.28 245.91 623.94 255.32 628.59 262.15 627.31 276.9 628.62 286.61 632.68 296.32 639.19 306.03 647.64 315.75 657.36 325.46 667.6 335.17 677.55 344.88 686.45 354.59 693.6 364.3 698.44 374.01 700.59 383.72 699.89 393.43 696.39 403.14 690.36 412.85 682.27 422.56 672.76 432.27 662.57 441.98 652.49 451.69 643.3 461.4 635.73 471.11 630.36 480.82 627.62 490.53 627.71 500.24 630.64 509.95 636.16 519.66 643.86 529.37 653.12 539.08 663.24 548.79 673.41 558.5 682.85 568.21 678.53 580.3 673.67 590.32 661.78 600.88 647.91 603.08 639.79 600.02 631 595.55 621.59 590.5 611.57 585.79 601.01 582.3 589.97 580.82 578.51 581.96 566.71 586.07 554.66 593.25 542.43 603.31 530.12 615.79 517.8 629.99 505.55 645.05 493.47 660.02 481.61 673.94 470.05 685.96 458.85 695.38 448.04 701.73 437.68 704.83 427.79 704.82 418.39 702.09 409.48 697.33 401.06 691.39 393.12 685.27 385.63 679.97 378.57 676.45 370.01 666.3 361.89 659.31 347.1 656.62 333.38 662 321.02 673.18 309.15 682.23 297.56 679.99 285.8 668.58 279.71 657.76 273.43 644.75 266.92 630.35 260.17 615.45 253.15 601 245.85 587.88 238.26 576.85 230.38 568.47 213.68 561.95 196.27 563.38 187.2 567.45 177.98 572.22 168.64 576.82 159.22 580.37 143.94 576.9 135.82 561.8 133.53 551.93 131.43 542.07 129.69 532.2 128.44 522.34 127.78 512.47 127.76 502.61 128.38 492.74 129.59 482.88 131.31 473.01 133.39 463.15 135.67 453.28 137.98 443.42 140.14 433.55 141.97 423.69 143.33 413.82 144.12 403.96 144.28 394.09 143.8 384.23 142.7 374.36 141.08 364.5 139.07 354.63 136.81 344.76 134.49 334.9 132.29 325.03 130.38 315.17 128.9 305.3 127.98 295.44 127.69 285.57 128.04 275.71 129.01 265.84 137.62 258.24 146.44 249.27 155.48 239.34 164.72 228.96 174.16 218.64 183.77 208.9 193.54 200.18 203.44 192.83 213.44 187.06 223.49 182.93 233.56 180.35 243.6 179.09 253.56 178.8 263.41 179.04 273.1 179.35 282.58 179.25 291.82 178.32 300.77 176.24 309.41 172.77 317.71 167.83 325.66 161.47 333.24 153.87 340.45 145.31 347.29 136.17 353.79 126.87 359.96 117.82 371.36 102.57 382.14 90.78 389.86 85.84 392.43 84.57" stroke-dasharray="7 1" transform="rotate(11.653846153846155, 400, 400)" opacity="0.24"></path>
<path d="M400.69 96.91Q411.67 104.39 422.69 112.63 433.7 121.33 444.63 130.16 455.43 138.73 466.02 146.7 476.36 153.76 486.38 159.67 496.04 164.29 505.29 167.59 522.15 170.26 537.51 170.69 550.3 171.12 561.6 173.84 570.76 182.96 578.92 196.34 582.58 205.16 586.11 214.72 589.6 224.6 593.12 234.36 600.74 251.09 609.21 263.96 615.63 273.42 617.31 288.59 620.03 298 625.12 307.41 632.21 316.81 640.78 326.22 650.23 335.63 659.88 345.04 669.03 354.44 677.04 363.85 683.32 373.26 687.43 382.66 689.07 392.07 688.13 401.48 684.67 410.89 678.93 420.29 671.34 429.7 662.44 439.11 652.86 448.51 643.29 457.92 634.41 467.33 626.87 476.73 621.2 486.14 617.8 495.55 616.93 504.95 618.64 514.36 622.82 523.77 629.16 533.18 637.2 542.58 646.38 551.99 656.03 561.4 665.46 570.8 649.97 587.22 636.29 586.78 621.81 578.01 605.54 570.14 596.4 568.58 586.76 569.32 576.64 572.72 566.1 578.91 555.2 587.78 544.01 598.98 532.6 611.97 521.03 626.05 509.38 640.41 497.73 654.22 486.14 666.68 474.67 677.1 463.4 684.95 452.37 689.94 441.65 691.99 431.26 691.29 421.26 688.27 411.65 683.55 402.48 677.91 393.73 672.22 385.42 667.35 377.54 664.11 363.88 649.05 351.21 642.81 339.75 648.91 328.73 658.86 309.56 666.78 295.33 660.47 289.22 651.71 282.88 640.61 276.28 627.76 269.4 613.87 262.24 599.74 254.8 586.2 247.08 573.99 239.1 563.75 230.87 555.93 222.41 550.8 213.75 548.36 204.92 548.42 195.94 550.54 186.85 554.15 177.68 558.53 168.47 562.91 153.49 562.94 145.35 549.96 143.09 540.58 141.11 531.2 139.54 521.81 138.52 512.43 138.09 503.05 138.31 493.66 139.14 484.28 140.54 474.9 142.4 465.51 144.59 456.13 146.95 446.74 149.31 437.36 151.51 427.98 153.38 418.59 154.79 409.21 155.65 399.83 155.88 390.44 155.48 381.06 154.46 371.67 152.91 362.29 150.94 352.91 148.68 343.52 146.3 334.14 143.97 324.75 141.86 315.37 140.11 305.99 138.86 296.6 138.19 287.22 138.15 277.83 138.74 268.45 146.8 259.41 155.06 249.6 163.53 239.48 172.21 229.52 181.1 220.18 190.18 211.84 199.45 204.82 208.87 199.29 218.44 195.32 228.11 192.81 237.86 191.57 247.65 191.29 257.44 191.59 267.18 192.05 276.84 192.24 286.38 191.76 295.75 190.28 304.91 187.56 313.83 183.46 322.48 177.98 330.81 171.23 338.83 163.41 346.49 154.82 353.81 145.82 360.76 136.8 367.36 128.13 379.41 113.72 390.57 102.66 398.2 98.08 400.69 96.91" stroke-dasharray="7 2" transform="rotate(15.53846153846154, 400, 400)" opacity="0.60"></path>
<path d="M408.85 109.24Q429.43 124.43 449.41 141.44 468.38 157.74 486 170.92 502 179.47 516.23 183.23 528.63 183.59 539.29 183.01 548.43 184.38 556.39 190.08 563.61 201.22 570.59 217.25 577.9 236.07 586.1 254.62 595.71 269.83 607.19 279.58 608.23 297.68 618 315.79 633.95 333.89 651.99 352 667.44 370.1 676.32 388.2 676.35 406.31 667.51 424.41 652.08 442.52 634.05 460.62 618.07 478.72 608.27 496.83 607.17 514.93 615.05 533.04 629.89 551.14 647.86 569.24 641.1 577.21 633.04 576.26 623.25 569.21 611.48 560.8 597.58 556.3 581.59 559.9 563.66 573.34 544.09 595.37 523.25 622.05 501.59 647.94 479.6 667.7 457.76 677.82 436.51 677.67 416.23 669.8 397.2 659.2 379.61 651.79 368.2 635.78 357.62 630.49 347.49 634.67 337.45 644.23 327.13 653.52 316.23 657.09 304.48 651.31 291.73 635.48 277.89 611.93 262.98 585.33 247.07 561.13 230.34 543.98 212.97 536.28 195.22 537.53 177.34 544.52 159.55 552.36 154.75 534.62 150.78 516.88 148.67 499.14 148.97 481.41 151.59 463.67 155.86 445.93 160.68 428.19 164.81 410.45 167.17 392.71 167.16 374.98 164.79 357.24 160.66 339.5 155.84 321.76 151.57 304.02 148.96 286.28 148.68 268.54 163.86 249.05 179.82 230.67 196.61 216.26 214.18 207.42 232.42 203.97 251.16 204.14 270.14 205.11 289.08 203.93 307.69 198.41 325.64 187.74 342.68 172.7 358.56 155.36 373.13 138.41 386.33 124.31 403.52 111.89 408.85 109.24" stroke-dasharray="11 8" transform="rotate(19.423076923076923, 400, 400)" opacity="0.81"></path>
<path d="M415.78 121.57Q434.3 136.22 451.83 152.67 468.09 168.66 482.9 181.99 496.13 191.13 507.77 195.68 526.23 196.16 541.72 199.09 548.66 207.21 555.86 220.37 563.78 237.36 572.88 255.86 583.54 273.01 596.08 286.26 600 303.54 611.22 320.83 627.1 338.11 643.9 355.4 657.66 372.68 665.13 389.97 664.56 407.25 656.08 424.54 641.69 441.82 624.78 459.1 609.33 476.39 598.99 493.67 596.19 510.96 601.59 528.24 614.04 553.2 599.3 545.18 587.79 544.67 574.41 552.55 559.19 569.12 542.26 592.22 523.87 617.81 504.34 641.08 484.03 657.76 463.34 665.37 442.69 663.95 422.46 656.08 402.97 646.22 384.49 639.46 374.86 624.05 365.53 618.28 356.18 621.26 346.48 629.7 336.16 638.85 325.01 643.85 312.87 641.1 299.68 629.18 285.44 609.27 270.24 584.73 254.21 560.12 237.54 539.96 220.43 527.43 203.12 523.54 185.84 526.88 168.77 534.08 164.05 517.4 160.49 500.71 158.93 484.03 159.74 467.34 162.73 450.66 167.19 433.97 172.07 417.29 176.23 400.6 178.68 383.91 178.84 367.23 176.68 350.54 172.71 333.86 167.86 317.17 163.27 300.48 160.03 283.8 158.9 267.11 172.92 248.67 187.66 233.19 203.2 222.56 219.53 217.24 236.61 216.23 254.32 217.38 272.48 217.99 290.87 215.63 309.22 208.74 327.26 197.09 344.71 181.76 361.3 164.82 376.82 148.69 391.11 135.49 409.94 124 415.78 121.57" stroke-dasharray="1 6" transform="rotate(23.30769230769231, 400, 400)" opacity="0.48"></path><path d="M420.54 133.9Q436.58 147.99 451.45 163.84 464.99 179.47 477.16 192.88 487.95 202.55 497.46 207.91 513.2 208.71 527.4 209.27 534.51 214.53 542.24 224.56 550.97 238.95 561.04 256.18 572.72 273.93 586.19 289.69 592.5 306.06 604.7 322.43 620.17 338.8 635.6 355.17 647.69 371.53 653.85 387.9 652.77 404.27 644.66 420.64 631.27 437.01 615.47 453.38 600.64 469.75 589.95 486.11 585.69 502.48 588.78 518.85 598.38 538.22 585.83 531.68 576.33 535.45 565.28 547.15 552.59 565.97 538.29 589.25 522.49 613.14 505.37 633.57 487.18 647.26 468.24 652.61 448.88 650.15 429.42 642.39 410.2 633.27 391.51 627.13 382.92 612.34 374.18 606.17 365 608.02 355.16 615.28 344.48 624.03 332.83 630.05 320.17 629.85 306.51 621.62 291.92 605.56 276.53 583.87 260.51 560.12 244.04 538.32 227.33 521.92 210.6 512.96 194.03 511.54 177.78 515.88 173.32 500.23 170.28 484.57 169.32 468.92 170.64 453.26 173.97 437.61 178.58 421.96 183.49 406.3 187.66 390.65 190.18 374.99 190.51 359.34 188.6 343.68 184.84 328.03 180.04 312.37 175.23 296.72 171.43 281.07 169.47 265.41 182.34 249.51 195.85 237.74 210.08 230.92 225.1 228.64 240.88 229.33 257.38 230.74 274.48 230.51 292.01 226.74 309.77 218.52 327.53 206.06 345.02 190.63 362 174.22 378.23 158.97 393.49 146.69 414.09 136.12 420.54 133.9" stroke-dasharray="11 5" transform="rotate(27.19230769230769, 400, 400)" opacity="0.61"></path><path d="M422.47 146.23Q435.9 159.74 448.16 174.97 459.21 190.18 469.11 203.57 477.95 213.71 485.9 219.88 500.03 221.5 513.91 220.56 521.52 223.32 529.99 230.2 539.63 241.49 550.65 256.43 563.22 273.41 577.44 290.28 585.62 305.66 598.32 321.05 613.09 336.44 627.07 351.82 637.54 367.21 642.49 382.59 640.96 397.98 633.23 413.37 620.82 428.75 606.11 444.14 591.97 459.52 581.12 474.91 575.66 490.29 576.66 505.68 582.68 522.78 571.38 520.78 563.49 528.66 554.4 543.44 543.96 563.55 532.1 586.19 518.83 607.89 504.23 625.36 488.44 636.22 471.66 639.58 454.12 636.28 436.1 628.73 417.87 620.34 399.7 614.8 391.45 600.65 382.67 594.15 373.19 594.95 362.85 601.02 351.57 609.16 339.32 615.77 326.13 617.65 312.06 612.73 297.25 600.54 281.83 582.27 265.98 560.46 249.89 538.44 233.75 519.49 217.73 506.17 201.99 499.69 186.66 499.67 182.61 484.99 180.19 470.31 179.85 455.63 181.67 440.95 185.3 426.27 190.02 411.59 194.93 396.91 199.08 382.22 201.66 367.54 202.17 352.86 200.52 338.18 197.02 323.5 192.35 308.82 187.42 294.14 183.18 279.45 180.45 264.77 192.2 252.47 204.48 244.68 217.41 241.33 231.06 241.34 245.46 242.91 260.6 243.92 276.43 242.44 292.83 237.18 309.67 227.73 326.77 214.65 343.91 199.32 360.86 183.56 377.41 169.27 393.32 157.91 415.43 148.25 422.47 146.23" stroke-dasharray="8 3" transform="rotate(31.07692307692308, 400, 400)" opacity="0.44"></path><path d="M421.3 158.56Q432.27 171.47 442.22 186.04 451.21 200.77 459.35 214.07 473.65 229.71 487.2 235.2 502.08 233.77 519.31 237.56 529.83 245.56 541.69 257.49 554.98 272.46 569.71 288.91 579.22 303.29 592 317.66 605.82 332.03 618.28 346.4 627.21 360.78 631.05 375.15 629.14 389.52 621.81 403.9 610.34 418.27 596.71 432.64 583.31 447.02 572.47 461.39 566.06 475.76 565.22 490.14 567.18 508.05 556.31 512.7 549.61 524.14 542.07 541.06 533.5 561.51 523.79 582.77 512.86 601.92 500.7 616.42 487.37 624.66 472.96 626.3 457.61 622.38 441.52 615.11 424.88 607.45 407.93 602.47 399.41 588.97 390.14 582.24 380.02 582.07 368.99 586.94 357.04 594.3 344.22 601.13 330.6 604.58 316.3 602.53 301.44 594.03 286.2 579.47 270.73 560.48 255.21 539.54 239.79 519.54 224.62 503.07 209.82 492 195.48 487.03 192 473.24 190.26 459.45 190.56 445.66 192.85 431.87 196.73 418.08 201.53 404.29 206.4 390.5 210.51 376.71 213.13 362.92 213.81 349.13 212.44 335.33 209.24 321.54 204.78 307.75 199.84 293.96 195.27 280.18 191.87 266.39 202.55 258.16 213.66 254.12 225.3 253.52 237.58 254.93 250.55 256.56 264.24 256.6 278.64 253.62 293.7 246.87 309.33 236.36 325.41 222.9 341.78 207.85 358.26 192.88 374.66 179.58 390.76 169.17 413.84 160.38 421.3 158.56" stroke-dasharray="1 0" transform="rotate(34.96153846153846, 400, 400)" opacity="0.09"></path><path d="M417.18 170.9Q426.06 183.19 434.18 197.08 441.66 211.27 448.63 224.38 455.29 235.16 461.82 242.81 475.64 247.25 491.02 245.91 500.11 245.21 510.26 246.76 521.56 251.6 534.1 260.16 547.87 272.21 562.85 286.83 573.17 300.2 585.63 313.57 598.31 326.94 609.23 340.31 616.69 353.68 619.54 367.05 617.32 380.42 610.39 393.79 599.82 407.16 587.26 420.53 574.65 433.9 563.97 447.27 556.86 460.64 554.45 474.02 557.59 491.79 552.27 494.9 546.67 498.4 541.02 507.39 535.1 521.55 528.68 539.58 521.57 559.45 513.61 578.75 504.7 595.12 494.76 606.73 483.76 612.59 471.74 612.78 458.74 608.43 444.87 601.53 430.26 594.58 415.07 590.13 405.87 577.3 395.84 570.4 384.95 569.37 373.21 573.07 360.68 579.51 347.43 586.23 333.58 590.76 319.26 591.06 304.6 585.92 289.77 575.12 274.89 559.51 260.12 540.78 245.59 521.18 231.39 503.09 217.62 488.54 204.34 478.92 201.55 465.93 200.54 452.94 201.46 439.95 204.18 426.96 208.26 413.97 213.08 400.98 217.89 387.99 221.93 375 224.58 362.01 225.43 349.02 224.34 336.03 221.49 323.04 217.31 310.05 212.46 297.06 210.57 275.44 223.43 265.83 233.85 267.03 244.8 268.9 256.35 269.86 268.55 268.5 281.43 263.92 294.99 255.79 309.18 244.46 323.95 230.85 339.18 216.28 354.75 202.2 370.51 189.94 386.28 180.46 409.54 172.53 417.18 170.9" stroke-dasharray="9 5" transform="rotate(38.84615384615385, 400, 400)" opacity="0.99"></path><path d="M410.7 183.23Q418.02 194.89 424.88 208.07 431.43 221.66 437.81 234.48 444.2 245.42 450.76 253.67 465.44 259.9 482.14 259.49 491.99 257.98 502.85 257.71 514.76 259.82 527.73 265.06 541.73 273.69 556.68 285.42 567.31 297.83 579.13 310.24 590.52 322.65 599.91 335.06 606 347.47 607.95 359.88 605.49 372.29 598.96 384.7 589.27 397.11 577.74 409.52 565.98 421.94 555.59 434.35 548.02 446.76 544.31 459.17 544.09 477.06 537.1 485.16 531.4 492.53 525.9 504.57 520.39 520.4 514.69 538.52 508.61 557.03 501.99 573.92 494.69 587.42 486.61 596.3 477.68 600.07 467.86 599.09 457.15 594.48 445.58 588 433.21 581.75 420.13 577.8 410.07 565.66 399.22 558.67 387.62 556.88 375.32 559.45 362.41 564.87 348.99 571.2 335.18 576.33 321.12 578.44 306.92 576.19 292.73 568.97 278.65 557.01 264.81 541.3 251.29 523.41 238.18 505.26 225.52 488.77 213.34 475.56 211.33 463.29 211.06 451.02 212.57 438.75 215.66 426.48 219.9 414.2 224.7 401.93 229.4 389.66 233.36 377.39 236.02 365.12 237.02 352.85 236.23 340.58 233.74 328.31 229.91 316.03 225.26 303.76 232.89 283.03 252.82 282.69 262.99 282.39 273.73 279.39 285.07 273.21 297.05 263.91 309.67 252.03 322.9 238.53 336.7 224.62 350.98 211.53 365.66 200.34 380.59 191.78 403.18 184.68 410.7 183.23" stroke-dasharray="1 6" transform="rotate(42.73076923076923, 400, 400)" opacity="0.18"></path><path d="M402.74 195.55Q409.09 206.57 415.29 219.01 421.46 231.96 427.74 244.4 434.27 255.37 441.19 264.1 448.63 270.13 456.7 273.4 465.51 274.22 475.12 273.29 485.61 271.59 496.99 270.2 509.26 270.22 522.4 272.53 536.35 277.73 551.01 285.98 561.49 297.5 572.4 309.01 582.41 320.53 590.3 332.05 595.13 343.56 596.29 355.08 593.65 366.6 587.54 378.12 578.69 389.63 568.17 401.15 557.27 412.67 547.31 424.19 539.49 435.7 534.77 447.22 531.53 465.69 522.85 479.11 516.89 489.67 511.3 503.7 505.92 520.1 500.58 537.37 495.12 553.88 489.4 568.08 476.35 582.94 461.49 585.23 452.84 580.52 443.43 574.52 433.28 568.94 422.4 565.47 411.55 554.03 400.04 547.03 387.94 544.57 375.35 546.08 362.37 550.44 349.09 556.13 335.64 561.46 322.12 564.82 308.65 564.9 295.32 560.89 282.24 552.57 269.47 540.34 257.08 525.16 245.13 508.39 233.63 491.62 222.59 476.38 221.4 464.77 221.85 453.16 223.9 441.54 227.3 429.93 231.63 418.32 236.36 406.7 240.93 395.09 244.78 383.48 247.44 371.86 248.58 360.25 248.08 348.64 245.98 337.02 242.55 325.41 238.2 313.8 244.16 296.18 261.69 295.73 270.59 293.8 279.93 289.09 289.78 281.49 300.19 271.29 311.18 259.16 322.76 246.02 334.93 232.93 347.66 220.91 360.88 210.8 374.53 203.14 395.63 196.84 402.74 195.55" stroke-dasharray="4 7" transform="rotate(46.61538461538462, 400, 400)" opacity="0.85"></path><path d="M394.4 207.88Q400.35 218.24 406.38 229.92 412.62 242.16 419.17 254.13 426.13 265 433.6 274.06 441.65 280.85 450.36 285.14 459.77 287.04 469.93 286.98 480.84 285.63 492.5 283.84 504.87 282.53 517.9 282.6 531.51 284.77 545.63 289.51 555.58 300.21 565.36 310.91 573.95 321.61 580.41 332.31 584.09 343.01 584.57 353.71 581.81 364.41 576.11 375.11 568.07 385.81 558.54 396.51 548.52 407.21 539.09 417.91 531.23 428.61 525.78 439.31 523.33 450.01 524.12 460.71 516.57 466.87 509.69 476.53 503.4 489.23 497.57 504.11 492.08 520.01 486.82 535.64 481.64 549.71 476.44 561.13 465.28 571.46 453.03 571.25 446.06 566.59 438.52 561.1 430.37 556.17 421.59 553.14 410.19 542.41 398.32 535.47 386.09 532.45 373.58 532.99 360.87 536.27 348.08 541.15 335.3 546.31 322.61 550.39 310.09 552.21 297.83 550.88 285.89 545.91 274.31 537.28 263.14 525.43 252.39 511.19 242.07 495.67 232.18 480.15 231.81 469.17 232.95 458.18 235.47 447.19 239.1 436.21 243.46 425.22 248.08 414.24 252.49 403.25 256.21 392.27 258.84 381.28 260.11 370.29 259.89 359.31 258.19 348.32 255.2 337.34 251.24 326.35 255.98 309.86 271.44 307.53 279.19 303.81 287.26 297.5 295.72 288.73 304.63 277.98 314.02 265.91 323.95 253.37 334.41 241.25 345.42 230.35 356.97 221.32 369.01 214.54 387.96 209.01 394.4 207.88" stroke-dasharray="6 10" transform="rotate(50.5, 400, 400)" opacity="0.87"></path><path d="M386.83 220.21Q392.83 229.9 399.09 240.79 405.69 252.28 412.71 263.68 420.22 274.32 428.25 283.56 436.87 290.93 446.09 296.16 455.94 299.19 466.41 300.21 477.48 299.65 489.13 298.11 501.31 296.29 513.95 294.96 526.99 294.85 540.32 296.56 549.43 306.51 557.95 316.46 565.11 326.41 570.24 336.37 572.88 346.32 572.79 356.27 569.97 366.22 564.69 376.17 557.42 386.13 548.84 396.08 539.72 406.03 530.9 415.98 523.18 425.93 517.28 435.89 513.73 445.84 512.86 455.79 504.99 465.03 497.76 476.8 491.11 490.43 484.97 505 479.24 519.5 473.85 532.91 463.71 551.41 453.69 560.82 442.95 556.43 431.3 547.74 424.79 543.43 417.8 540.81 406.25 530.8 394.45 523.99 382.49 520.53 370.44 520.2 358.39 522.42 346.42 526.37 334.58 531.05 322.96 535.38 311.6 538.34 300.56 539.07 289.86 536.96 279.54 531.73 269.62 523.41 260.09 512.4 250.96 499.36 242.19 485.17 242.62 474.82 244.37 464.46 247.26 454.1 251.05 443.75 255.38 433.39 259.85 423.03 264.07 412.68 267.63 402.32 270.22 391.96 271.6 381.61 271.65 371.25 270.35 360.89 267.84 350.54 264.33 340.18 268.3 323.16 282.01 317.67 288.77 312.23 295.73 304.58 302.95 295.02 310.5 284.07 318.42 272.37 326.76 260.65 335.56 249.61 344.83 239.88 354.61 231.91 364.87 225.99 381.23 221.18 386.83 220.21" stroke-dasharray="10 7" transform="rotate(54.38461538461538, 400, 400)" opacity="0.45"></path><path d="M381.08 232.54Q387.41 241.54 394.1 251.63 401.19 262.32 408.72 273.08 416.73 283.35 425.23 292.59 434.24 300.37 443.77 306.38 453.79 310.48 464.29 312.69 475.24 313.22 486.59 312.43 498.3 310.84 510.3 309.01 522.52 307.56 534.9 307.08 542.93 316.34 550.11 325.6 555.87 334.85 559.78 344.11 561.51 353.37 560.95 362.63 558.12 371.88 553.26 381.14 546.74 390.4 539.07 399.66 530.85 408.91 522.71 418.17 515.3 427.43 509.2 436.69 504.87 445.94 502.65 455.2 494.59 466.35 487.11 478.94 480.15 492.27 473.7 505.54 467.69 517.95 462.06 528.79 444.54 544.25 432.49 543.06 422.38 534.78 411.56 528.49 400.32 519.2 389.04 512.6 377.76 508.8 366.56 507.7 355.49 508.92 344.61 511.88 333.96 515.86 323.58 520.02 313.52 523.55 303.78 525.68 294.39 525.81 285.37 523.5 276.7 518.55 268.37 511.03 260.39 501.2 252.71 489.58 253.86 479.88 256.12 470.18 259.3 460.49 263.15 450.79 267.39 441.09 271.67 431.39 275.66 421.69 279.05 412 281.59 402.3 283.06 392.6 283.35 382.9 282.45 373.2 280.41 363.5 277.41 353.8 281.03 335.16 293.33 325.9 299.25 319.02 305.27 310.42 311.44 300.49 317.81 289.71 324.44 278.67 331.36 267.94 338.62 258.07 346.27 249.52 354.32 242.6 362.8 237.49 376.4 233.37 381.08 232.54" stroke-dasharray="9 5" transform="rotate(58.26923076923077, 400, 400)" opacity="0.74"></path><path d="M377.94 244.88Q391.85 262.44 407.31 282.34 424.4 301.17 443.09 315.75 463.23 324.13 484.54 326.22 506.67 323.9 529.16 320.47 541.78 337.65 549.04 354.83 549.06 372.01 541.84 389.19 529.24 406.37 514.51 423.55 501.46 440.73 493.45 457.91 477.73 481.74 463.89 504.95 451.73 523.04 440.95 532.99 431.19 534.24 422.02 528.9 413 521.2 403.71 516.15 382.9 501.27 362.63 495.51 343.21 497.78 324.88 504.56 307.78 511.06 291.95 512.67 277.33 506.38 263.79 491.62 268.21 473.64 275.41 455.66 283.53 437.68 290.48 419.7 294.46 401.72 294.45 383.74 290.45 365.76 283.49 347.78 294.59 343.34 305.24 332.16 315.76 315.17 326.48 295.05 337.74 275.32 349.89 259.29 370.58 246.97 377.94 244.88" stroke-dasharray="5 3" transform="rotate(62.15384615384616, 400, 400)" opacity="0.89"></path><path d="M377.84 257.21Q392.42 273.22 408.29 291.46 425.41 309.32 443.65 324.23 462.81 334.32 482.63 338.89 502.78 338.65 522.91 335.6 532.92 351.45 538.02 367.3 537.12 383.16 530.41 399.01 519.33 414.86 506.25 430.71 493.97 446.57 485.13 462.42 469.58 483.97 455.58 502.6 443.05 515.49 431.85 521.26 421.76 520.31 412.52 514.78 403.82 508.03 395.36 503.82 376.95 490.02 359.36 483.64 342.75 484.15 327.22 489.26 312.79 495.62 299.43 499.59 287.04 498.23 275.47 489.99 280.63 473.54 287.8 457.09 295.43 440.64 301.9 424.18 305.82 407.73 306.35 391.28 303.37 374.82 297.53 358.37 307.83 350.15 317.57 336.52 326.98 319.05 336.28 300.24 345.74 282.85 355.65 269.22 372.05 258.94 377.84 257.21" stroke-dasharray="2 8" transform="rotate(66.03846153846153, 400, 400)" opacity="0.31"></path><path d="M380.79 269.54Q395.56 283.98 411.25 300.46 427.76 317.08 444.95 331.85 462.6 343.13 480.5 349.96 498.4 352.3 516.03 351.06 523.52 365.54 526.74 380.02 525.14 394.5 518.99 408.98 509.36 423.46 497.92 437.95 486.67 452.43 477.57 466.91 462.55 484.45 448.72 497.99 436.09 506.11 424.61 508.51 414.19 506.07 404.67 500.69 395.89 494.94 387.64 491.49 372.09 478.84 357.41 472.08 343.67 471.04 330.87 474.35 318.97 479.8 307.9 484.75 295.46 477.95 300.32 454.34 307.38 439.52 313.33 424.7 317.13 409.88 318.12 395.06 316.13 380.24 311.5 365.43 321.1 354.2 330.11 339.28 338.65 322.36 346.9 305.47 355.03 290.62 363.25 279.32 376.28 270.94 380.79 269.54" stroke-dasharray="9 8" transform="rotate(69.92307692307692, 400, 400)" opacity="0.41"></path><path d="M386.4 281.87Q400.7 294.72 415.56 309.38 430.85 324.5 446.43 338.65 462.15 350.5 477.83 359.09 493.3 363.99 508.37 365.35 513.56 378.39 515.22 391.42 513.12 404.45 507.56 417.49 499.3 430.52 489.48 443.56 479.46 456.59 470.61 469.63 456.48 482.27 443.19 490.88 430.81 494.99 419.34 494.91 408.76 491.63 399.01 486.69 390 481.92 381.63 479.16 369.07 467.72 357.3 460.84 346.3 458.53 336.03 460.05 326.42 464.06 317.4 468.84 307.63 466.52 312.96 447.38 319.37 434.28 324.76 421.17 328.38 408.07 329.75 394.96 328.67 381.86 325.28 368.76 334.22 355.81 342.6 340.89 350.48 325.44 357.96 310.94 365.16 298.69 372.19 289.61 382.81 282.97 386.4 281.87" stroke-dasharray="4 5" transform="rotate(73.8076923076923, 400, 400)" opacity="0.92"></path><path d="M393.88 294.2Q407.05 305.45 420.46 318.23 434 331.66 447.57 344.73 461.06 356.5 474.34 366.14 487.32 373.09 499.86 377.13 503.04 388.63 503.46 400.13 501.07 411.63 496.14 423.13 489.18 434.63 480.93 446.13 472.26 457.63 464.09 469.13 451.17 476.86 438.81 481.23 427.06 482.31 415.97 480.64 405.55 477.09 395.79 472.79 386.67 468.97 378.15 466.83 368.45 456.66 359.35 449.89 342.98 447.74 327.89 452.61 320.31 452.41 325.69 436.88 331.38 425.53 336.18 414.18 339.58 402.83 341.22 391.48 340.94 380.13 338.75 368.78 347.02 355.64 354.81 341.92 362.13 328.67 369.04 316.82 387.81 297.85 393.88 294.2" stroke-dasharray="4 1" transform="rotate(77.6923076923077, 400, 400)" opacity="0.87"></path><path d="M402.2 306.53Q413.66 316.17 425.14 327.04 436.56 338.6 447.85 350.22 458.96 361.25 469.8 371.11 480.31 379.29 490.45 385.45 491.98 395.34 491.48 405.22 488.99 415.1 484.71 424.99 478.97 434.87 472.22 444.75 464.99 454.64 457.83 464.52 446.4 468.07 435.31 469.25 424.59 468.37 414.3 465.92 404.45 462.55 395.06 459.02 386.14 456.1 377.69 454.5 363.85 440.51 351.02 433.93 339.87 424.97 347.6 404.87 350.72 395.27 352.53 385.68 352.89 376.08 351.78 366.48 359.33 354.57 366.49 343 373.27 332.4 379.67 323.29 396.77 309.21 402.2 306.53" stroke-dasharray="10 4" transform="rotate(81.57692307692308, 400, 400)" opacity="0.58"></path><path d="M410.22 318.86Q428.81 335.84 446.84 355.26 464.03 374.23 480.11 389.91 479.3 406.33 473.29 422.75 463.36 439.17 451.64 455.59 432.41 455.39 413.97 450.97 396.56 445.42 380.3 442.16 370.14 428.86 360.63 422.38 351.44 416.36 359.03 394.76 363.64 379 364.26 363.25 377.43 344.79 389.45 330.48 405.29 320.35 410.22 318.86" stroke-dasharray="6 2" transform="rotate(85.46153846153847, 400, 400)" opacity="0.57"></path><path d="M416.83 331.19Q430.82 344.64 444.23 360.04 456.94 375.93 468.85 390.74 466.94 403.76 461.86 416.78 454.32 429.81 445.35 442.83 429.8 440.21 414.57 436.03 399.81 432 385.63 429.83 371.32 414.05 357.08 410.35 364.34 397.92 370.45 385.5 374.57 373.07 376.11 360.64 387.43 347.87 398 338.54 412.31 332.12 416.83 331.19" stroke-dasharray="4 2" transform="rotate(89.34615384615384, 400, 400)" opacity="0.14"></path><path d="M421.12 343.52Q430.68 353.48 439.82 364.75 448.52 376.74 456.74 388.78 454.43 398.42 450.44 408.07 445.09 417.71 438.8 427.36 427.16 424.41 415.59 421.31 404.17 418.78 392.94 417.51 382.6 403.76 371.94 397.06 377.31 387.83 381.88 378.61 385.28 369.39 387.26 360.17 396.35 352.76 405.04 347.54 417.21 344.02 421.12 343.52" stroke-dasharray="9 0" transform="rotate(93.23076923076924, 400, 400)" opacity="0.49"></path><path d="M422.49 355.85Q433.59 369.6 443.85 385.37 439.02 398.03 431.83 410.7 416.51 407.04 401.22 405.18 394.22 394.26 386.84 387.46 393.31 375.22 397.66 362.99 416.45 356.69 422.49 355.85" stroke-dasharray="9 1" transform="rotate(97.11538461538461, 400, 400)" opacity="0.29"></path></g></svg>