<?xml version="1.0" standalone="no"?>
<!DOCTYPE svg PUBLIC "-//W3C//DTD SVG 20010904//EN"
 "http://www.w3.org/TR/2001/REC-SVG-20010904/DTD/svg10.dtd">
<svg version="1.0" xmlns="http://www.w3.org/2000/svg"
 width="100.000000pt" height="100.000000pt" viewBox="0 0 100.000000 100.000000"
 preserveAspectRatio="xMidYMid meet">

<g transform="translate(0.000000,100.000000) scale(0.100000,-0.100000)"
fill="#000000" stroke="none">
<path d="M705 941 c-41 -19 -205 -179 -205 -200 0 -8 9 -7 30 4 16 8 41 15 56
15 19 0 44 16 84 54 77 74 131 85 180 36 51 -51 38 -103 -48 -193 -94 -97
-131 -113 -191 -82 -27 13 -30 13 -55 -14 -30 -32 -26 -39 37 -66 83 -35 143
-13 251 93 114 112 138 178 97 267 -22 48 -44 69 -94 90 -48 20 -93 19 -142
-4z"/>
<path d="M545 710 c-11 -4 -73 -62 -138 -128 -103 -104 -119 -124 -124 -159
-8 -64 49 -146 92 -130 26 11 30 56 6 78 -11 11 -21 28 -21 37 0 23 210 232
233 232 9 0 25 -9 34 -20 20 -23 42 -25 68 -6 17 12 18 17 7 40 -23 51 -102
80 -157 56z"/>
<path d="M162 418 c-120 -117 -145 -183 -103 -273 22 -48 44 -69 94 -90 83
-35 143 -13 251 93 111 109 136 174 101 259 -27 63 -34 67 -66 37 -27 -25 -27
-28 -14 -55 31 -60 15 -97 -82 -191 -90 -86 -142 -99 -193 -48 -49 49 -38 103
36 180 40 42 54 64 54 86 0 16 7 41 14 57 25 47 -3 30 -92 -55z"/>
<path d="M535 448 c3 -13 9 -33 12 -46 6 -23 6 -23 39 9 l34 33 -38 13 c-51
17 -55 16 -47 -9z"/>
</g>
</svg>
