<?xml version="1.0" standalone="no"?>
<!DOCTYPE svg PUBLIC "-//W3C//DTD SVG 20010904//EN"
 "http://www.w3.org/TR/2001/REC-SVG-20010904/DTD/svg10.dtd">
<svg version="1.0" xmlns="http://www.w3.org/2000/svg"
 width="10309.000000pt" height="3054.000000pt" viewBox="0 0 10309.000000 3054.000000"
 preserveAspectRatio="xMidYMid meet">

<g transform="translate(0.000000,3054.000000) scale(0.100000,-0.100000)"
fill="#ffffff" stroke="none">
<path d="M6660 30523 c-704 -70 -1329 -362 -1815 -848 -299 -299 -530 -659
-678 -1055 -51 -137 -4071 -13832 -4101 -13970 -50 -231 -60 -338 -61 -615 0
-271 7 -346 51 -577 85 -441 302 -907 590 -1265 317 -394 740 -706 1209 -891
136 -53 2063 -625 2077 -616 4 3 8 2686 8 5963 0 3918 3 6002 10 6087 72 920
422 1772 1011 2460 756 883 1806 1411 2974 1494 196 14 9400 14 9590 0 152
-12 324 -32 450 -54 44 -8 82 -12 84 -10 12 12 -138 219 -267 367 -313 360
-762 665 -1212 822 -78 27 -8234 2427 -8850 2604 -272 78 -525 112 -825 109
-115 0 -226 -3 -245 -5z"/>
<path d="M8013 25254 c-239 -29 -504 -95 -720 -179 -250 -99 -552 -273 -763
-441 -118 -94 -371 -349 -468 -471 -358 -454 -569 -984 -622 -1568 -14 -152
-14 -14498 0 -14650 53 -585 263 -1112 624 -1570 95 -121 349 -376 466 -469
363 -288 798 -491 1246 -581 291 -59 -47 -56 5169 -52 l4780 3 125 21 c784
134 1441 529 1903 1146 345 461 539 993 577 1583 14 220 14 14268 0 14488 -38
590 -232 1122 -577 1583 -462 617 -1119 1012 -1903 1146 l-125 21 -4800 2
c-3998 2 -4819 0 -4912 -12z m2982 -7614 c1033 -1207 1881 -2196 1885 -2198 4
-1 854 987 1889 2198 1036 1210 1884 2200 1887 2200 2 0 4 -2061 4 -4580 l0
-4580 -885 0 -885 0 -2 2080 -3 2080 -985 -1151 c-542 -633 -992 -1160 -1001
-1171 -15 -19 -55 25 -1013 1146 -549 641 -1002 1166 -1007 1166 -5 0 -9 -824
-9 -2075 l0 -2075 -882 2 -883 3 -3 4578 c-1 2706 2 4577 7 4575 5 -1 854
-991 1886 -2198z"/>
<path d="M32090 15367 l0 -4827 935 0 935 0 2 2179 3 2179 416 -486 c229 -268
703 -821 1052 -1229 l635 -742 1053 1231 1054 1231 3 -2181 2 -2182 935 0 935
0 0 4819 c0 2651 -3 4822 -7 4824 -5 3 -900 -1038 -1991 -2314 l-1984 -2318
-152 177 c-84 97 -966 1129 -1960 2292 -995 1163 -1821 2128 -1837 2145 l-29
30 0 -4828z"/>
<path d="M49710 15367 l0 -4827 935 0 935 0 2 2178 3 2178 1050 -1227 c977
-1143 1051 -1227 1066 -1211 9 9 482 561 1050 1227 l1034 1209 3 -2177 2
-2177 935 0 935 0 0 4828 -1 4827 -22 -26 c-12 -15 -906 -1060 -1987 -2323
-1526 -1784 -1967 -2293 -1976 -2284 -6 7 -890 1041 -1964 2298 -1074 1257
-1963 2296 -1976 2310 l-24 25 0 -4828z"/>
<path d="M64160 20124 c-1174 -68 -2274 -569 -3136 -1429 -842 -840 -1345
-1907 -1434 -3039 -5 -71 -10 -263 -10 -426 0 -163 5 -355 10 -426 77 -980
456 -1892 1120 -2694 133 -161 469 -497 630 -630 752 -623 1592 -991 2519
-1105 108 -13 471 -32 616 -32 152 0 507 19 615 32 950 117 1830 515 2585
1169 157 136 424 409 555 566 669 805 1052 1741 1121 2735 15 224 6 771 -16
960 -48 415 -144 801 -290 1175 -398 1018 -1146 1901 -2095 2472 -598 360
-1240 577 -1930 653 -139 15 -706 28 -860 19z m725 -1924 c538 -80 1030 -293
1455 -630 118 -93 365 -336 457 -450 365 -452 589 -980 660 -1554 21 -177 21
-508 -1 -681 -60 -471 -223 -913 -474 -1290 -127 -191 -206 -288 -362 -449
-481 -496 -1059 -788 -1765 -893 -181 -27 -601 -24 -785 4 -479 75 -867 223
-1252 479 -628 417 -1091 1070 -1267 1787 -158 642 -100 1295 168 1900 340
768 1006 1378 1796 1645 222 75 464 127 705 151 151 15 502 5 665 -19z"/>
<path d="M97805 19940 l-1200 -5 0 -4700 0 -4700 940 0 940 0 5 1199 5 1199
1050 -1199 1050 -1199 1240 -3 c685 -1 1243 2 1248 7 4 4 -534 628 -1227 1421
l-1235 1412 122 70 c265 152 472 312 703 542 282 283 496 580 678 945 256 511
368 1036 353 1651 -9 357 -52 609 -158 937 -177 544 -472 1010 -910 1438 -633
618 -1434 965 -2274 987 -71 2 -670 1 -1330 -2z m1465 -1909 c332 -58 608
-208 867 -473 218 -222 359 -484 424 -788 20 -90 23 -136 23 -315 1 -228 -15
-342 -70 -512 -140 -430 -503 -821 -920 -987 -220 -89 -422 -116 -856 -116
l-248 0 0 1612 0 1611 333 -6 c269 -5 354 -9 447 -26z"/>
<path d="M72463 19933 l-1193 -3 0 -4695 0 -4695 935 0 935 0 0 1205 c0 663 3
1205 8 1204 4 0 481 -542 1060 -1205 l1054 -1204 1246 0 1246 0 -26 28 c-14
15 -479 547 -1034 1182 -555 635 -1102 1261 -1215 1391 l-206 235 96 54 c516
285 957 717 1272 1246 279 470 432 934 479 1461 16 177 8 670 -14 813 -56 366
-147 667 -300 985 -521 1083 -1584 1854 -2726 1979 -194 21 -296 22 -1617 19z
m1279 -1873 c303 -20 535 -97 778 -257 157 -105 376 -322 478 -476 121 -182
196 -362 239 -572 28 -140 25 -492 -6 -635 -61 -286 -177 -515 -371 -737 -248
-285 -559 -461 -921 -525 -109 -19 -164 -21 -459 -22 l-335 -1 -3 1605 c-1
883 0 1611 3 1618 5 15 373 17 597 2z"/>
<path d="M89475 19928 c-3 -7 -4 -2123 -3 -4703 l3 -4690 2510 0 2510 0 0 940
0 940 -1567 3 -1568 2 0 955 0 955 1568 2 1567 3 0 930 0 930 -1567 3 -1568 2
0 930 0 930 1568 2 1567 3 0 935 0 935 -2508 3 c-2001 2 -2509 0 -2512 -10z"/>
<path d="M42580 15235 l0 -4695 2505 0 2505 0 -2 933 -3 932 -1567 3 -1568 2
0 965 0 965 1570 0 1570 0 0 925 0 925 -1570 0 -1570 0 0 940 0 940 1570 0
1570 0 0 930 0 930 -2505 0 -2505 0 0 -4695z"/>
<path d="M79180 15235 l0 -4695 935 0 935 0 0 4695 0 4695 -935 0 -935 0 0
-4695z"/>
<path d="M82760 19000 l0 -930 783 -2 782 -3 3 -3762 2 -3763 935 0 935 0 0
3765 0 3765 785 0 785 0 0 930 0 930 -2505 0 -2505 0 0 -930z"/>
<path d="M21830 13973 c0 -3754 -4 -5953 -10 -6068 -44 -798 -278 -1506 -715
-2160 -166 -249 -303 -414 -534 -646 -342 -342 -653 -570 -1064 -784 -431
-223 -916 -375 -1407 -439 -285 -37 -338 -37 -5170 -34 -4472 3 -4732 4 -4865
21 -77 10 -187 26 -245 36 -58 10 -108 16 -112 14 -10 -5 64 -115 162 -243 94
-122 367 -395 490 -490 230 -177 526 -344 777 -438 117 -43 8864 -2616 9038
-2658 203 -48 346 -65 605 -71 192 -4 276 -2 390 12 559 64 1080 281 1520 631
109 87 357 335 444 444 200 251 377 571 477 859 29 84 3798 12899 4039 13736
79 271 112 517 112 820 0 482 -98 890 -318 1325 -191 380 -473 723 -811 988
-164 128 -441 291 -643 377 -151 65 -270 102 -1205 376 -506 148 -928 272
-937 275 -17 5 -18 -280 -18 -5883z"/>
</g>
</svg>
