<?xml version="1.0" standalone="no"?>
<!DOCTYPE svg PUBLIC "-//W3C//DTD SVG 20010904//EN"
 "http://www.w3.org/TR/2001/REC-SVG-20010904/DTD/svg10.dtd">
<svg version="1.0" xmlns="http://www.w3.org/2000/svg"
 width="384.000000pt" height="384.000000pt" viewBox="0 0 384.000000 384.000000"
 preserveAspectRatio="xMidYMid meet">

<g transform="translate(0.000000,384.000000) scale(0.100000,-0.100000)"
fill="#000000" stroke="none">
<path d="M564 3191 c-48 -12 -133 -62 -160 -94 -14 -17 -37 -53 -52 -81 l-27
-51 0 -1045 0 -1045 27 -51 c40 -76 70 -107 140 -145 l63 -34 1365 0 1365 0
52 27 c66 35 116 85 151 151 l27 52 0 885 0 885 -27 51 c-40 76 -70 107 -140
145 l-63 34 -679 3 -679 3 -135 131 c-97 94 -151 138 -191 157 l-56 26 -475 2
c-261 1 -489 -2 -506 -6z"/>
</g>
</svg>
