<?xml version="1.0" standalone="no"?>
<svg xmlns:xlink="http://www.w3.org/1999/xlink" id="wave" style="transform:rotate(0deg); transition: 0.3s" viewBox="0 0 1440 120" version="1.1" xmlns="http://www.w3.org/2000/svg"><defs><linearGradient id="sw-gradient-0" x1="0" x2="0" y1="1" y2="0"><stop stop-color="rgba(32, 32, 32, 1)" offset="0%"/><stop stop-color="rgba(32, 32, 32, 1)" offset="100%"/></linearGradient></defs><path style="transform:translate(0, 0px); opacity:1" fill="url(#sw-gradient-0)" d="M0,72L15,78C30,84,60,96,90,88C120,80,150,52,180,34C210,16,240,8,270,4C300,0,330,0,360,12C390,24,420,48,450,62C480,76,510,80,540,76C570,72,600,60,630,46C660,32,690,16,720,26C750,36,780,72,810,86C840,100,870,92,900,78C930,64,960,44,990,48C1020,52,1050,80,1080,82C1110,84,1140,60,1170,48C1200,36,1230,36,1260,46C1290,56,1320,76,1350,72C1380,68,1410,40,1440,34C1470,28,1500,44,1530,42C1560,40,1590,20,1620,16C1650,12,1680,24,1710,34C1740,44,1770,52,1800,54C1830,56,1860,52,1890,54C1920,56,1950,64,1980,64C2010,64,2040,56,2070,52C2100,48,2130,48,2145,48L2160,48L2160,120L2145,120C2130,120,2100,120,2070,120C2040,120,2010,120,1980,120C1950,120,1920,120,1890,120C1860,120,1830,120,1800,120C1770,120,1740,120,1710,120C1680,120,1650,120,1620,120C1590,120,1560,120,1530,120C1500,120,1470,120,1440,120C1410,120,1380,120,1350,120C1320,120,1290,120,1260,120C1230,120,1200,120,1170,120C1140,120,1110,120,1080,120C1050,120,1020,120,990,120C960,120,930,120,900,120C870,120,840,120,810,120C780,120,750,120,720,120C690,120,660,120,630,120C600,120,570,120,540,120C510,120,480,120,450,120C420,120,390,120,360,120C330,120,300,120,270,120C240,120,210,120,180,120C150,120,120,120,90,120C60,120,30,120,15,120L0,120Z"/></svg>